<svg width="149" height="40" viewBox="0 0 149 40" fill="none" xmlns="http://www.w3.org/2000/svg">
<path d="M50.6 25.798H43.0509C42.5889 25.798 42.1546 25.7112 41.7519 25.5335C41.3452 25.3598 40.9899 25.1189 40.6859 24.811C40.3818 24.507 40.141 24.1477 39.9633 23.7449C39.7896 23.3383 39.6988 22.904 39.6988 22.446V18.324C39.6988 17.862 39.7857 17.4277 39.9633 17.025C40.137 16.6183 40.3779 16.2629 40.6859 15.9589C40.9899 15.6549 41.3492 15.4141 41.7519 15.2364C42.1586 15.0627 42.5929 14.9719 43.0509 14.9719H50.6C51.0619 14.9719 51.4962 15.0587 51.899 15.2364C52.3056 15.4101 52.661 15.651 52.965 15.9589C53.269 16.2669 53.5099 16.6222 53.6875 17.025C53.8613 17.4316 53.9521 17.866 53.9521 18.324V22.446C53.9521 22.9079 53.8652 23.3422 53.6875 23.7449C53.5138 24.1516 53.273 24.507 52.965 24.811C52.661 25.1189 52.3017 25.3558 51.899 25.5335C51.4923 25.7072 51.058 25.798 50.6 25.798ZM51.1093 21.4233V19.3466C51.1093 19.1373 51.0698 18.9399 50.9948 18.7543C50.9198 18.5687 50.8132 18.4069 50.6711 18.2647C50.5289 18.1226 50.371 18.016 50.1894 17.9331C50.0077 17.8541 49.8064 17.8146 49.5892 17.8146H44.0853C43.8642 17.8146 43.6629 17.8541 43.4773 17.9291C43.2917 18.0041 43.1259 18.1107 42.9798 18.2529C42.8337 18.395 42.7232 18.5569 42.6482 18.7425C42.5731 18.928 42.5337 19.1294 42.5337 19.3505V21.4273C42.5337 21.6366 42.5731 21.834 42.6482 22.0195C42.7232 22.2051 42.8298 22.3709 42.9719 22.517C43.1141 22.6631 43.2759 22.7737 43.4615 22.8487C43.6471 22.9237 43.8484 22.9632 44.0695 22.9632H49.5576C49.7866 22.9632 49.9959 22.9237 50.1815 22.8447C50.367 22.7658 50.5289 22.6552 50.6711 22.5131C50.8132 22.3709 50.9198 22.2091 50.9948 22.0235C51.0698 21.8379 51.1093 21.6405 51.1093 21.4312V21.4233Z" fill="white"/>
<path d="M69.5636 14.9877V22.4302C69.5636 22.8921 69.4767 23.3264 69.2991 23.737C69.1253 24.1477 68.8845 24.507 68.5765 24.811C68.2725 25.1189 67.9132 25.3558 67.5105 25.5335C67.1038 25.7072 66.6656 25.798 66.1957 25.798H58.6782C58.2162 25.798 57.7819 25.7112 57.3713 25.5335C56.9607 25.3598 56.6014 25.1189 56.2974 24.811C55.9934 24.507 55.7525 24.1477 55.5748 23.737C55.4011 23.3264 55.3103 22.8882 55.3103 22.4302V14.9877H58.1531V21.4391C58.1531 21.6602 58.1925 21.8616 58.2715 22.0393C58.3505 22.2209 58.461 22.3788 58.6032 22.521C58.7453 22.6631 58.9072 22.7697 59.0928 22.8447C59.2783 22.9197 59.4757 22.9592 59.685 22.9592H65.1731C65.3942 22.9592 65.5956 22.9197 65.7811 22.8447C65.9667 22.7697 66.1286 22.6631 66.2707 22.521C66.4129 22.3788 66.5195 22.217 66.6024 22.0314C66.6813 21.8458 66.7208 21.6484 66.7208 21.4391V14.9877H69.5636Z" fill="white"/>
<path d="M84.9895 25.798H81.515L79.3632 22.671H73.7527V25.798H70.9099V14.9719H81.7993C82.2691 14.9719 82.7074 15.0587 83.114 15.2285C83.5207 15.3983 83.8761 15.6233 84.1801 15.9037C84.4841 16.184 84.7249 16.5077 84.9026 16.8749C85.0763 17.2421 85.1671 17.6133 85.1671 17.9962V19.5756C85.1671 19.8954 85.1 20.2231 84.9658 20.5547C84.8315 20.8864 84.6499 21.1904 84.4249 21.4707C84.1998 21.7511 83.9392 21.988 83.6431 22.1854C83.347 22.3828 83.043 22.5091 82.735 22.5683L84.9895 25.802V25.798ZM82.3283 18.8964V18.6872C82.3283 18.5766 82.3046 18.47 82.2533 18.3634C82.202 18.2568 82.127 18.166 82.0283 18.0871C81.9296 18.0081 81.8111 17.941 81.6729 17.8936C81.5387 17.8423 81.3807 17.8186 81.1991 17.8186H73.7566V19.8322H81.1991C81.4005 19.8322 81.5703 19.8085 81.7124 19.7572C81.8545 19.7058 81.969 19.6387 82.0598 19.5558C82.1507 19.469 82.2178 19.3702 82.2612 19.2557C82.3046 19.1412 82.3283 19.0228 82.3283 18.9043V18.8964Z" fill="white"/>
<path d="M100.66 14.9719V17.8146H94.8247V25.798H91.9819V17.8146H86.2214V14.9719H100.656H100.66Z" fill="white"/>
<path d="M116.09 25.798H112.616L110.464 22.671H104.853V25.798H102.01V14.9719H112.9C113.37 14.9719 113.808 15.0587 114.215 15.2285C114.621 15.3983 114.977 15.6233 115.281 15.9037C115.585 16.184 115.826 16.5077 116.003 16.8749C116.177 17.2421 116.268 17.6133 116.268 17.9962V19.5756C116.268 19.8954 116.201 20.2231 116.066 20.5547C115.932 20.8864 115.751 21.1904 115.525 21.4707C115.3 21.7511 115.04 21.988 114.744 22.1854C114.448 22.3828 114.144 22.5091 113.836 22.5683L116.09 25.802V25.798ZM113.429 18.8964V18.6872C113.429 18.5766 113.405 18.47 113.354 18.3634C113.303 18.2568 113.228 18.166 113.129 18.0871C113.03 18.0081 112.912 17.941 112.777 17.8936C112.643 17.8423 112.485 17.8186 112.304 17.8186H104.861V19.8322H112.304C112.505 19.8322 112.675 19.8085 112.813 19.7572C112.955 19.7058 113.07 19.6387 113.16 19.5558C113.251 19.4729 113.318 19.3702 113.362 19.2557C113.405 19.1412 113.429 19.0228 113.429 18.9043V18.8964Z" fill="white"/>
<path d="M117.622 14.9719H131.232V17.8146H120.465V18.9715H130.872V21.7984H120.465V22.9553H131.232V25.798H117.622V14.9719Z" fill="white"/>
<path d="M136.242 25.798H132.286L137.64 20.385L132.286 14.9719H136.258L139.717 18.4463H140.68L144.139 14.9719H148.111L142.757 20.385L148.111 25.798H144.139L140.664 22.3078H139.732L136.242 25.798Z" fill="white"/>
<path d="M44.6618 29.237H49.2339V29.8213H45.2462V30.761H49.1115V31.3454H45.2462V32.2851H49.2339V32.8694H44.6618V29.2291V29.237Z" fill="white"/>
<path d="M53.806 32.1824V29.237H54.3903V32.8773H53.656L50.2762 29.924V32.8773H49.6919V29.237H50.4342L53.806 32.1824Z" fill="white"/>
<path d="M59.7995 30.1727C59.7166 30.0977 59.6178 30.0385 59.5112 29.9951C59.4046 29.9477 59.2862 29.9161 59.1638 29.8885C59.0374 29.8648 58.9072 29.845 58.769 29.8371C58.6308 29.8292 58.4886 29.8253 58.3426 29.8253H56.2144C56.0999 29.8253 55.9973 29.845 55.9025 29.8845C55.8078 29.924 55.7248 29.9793 55.6577 30.0503C55.5867 30.1214 55.5353 30.2043 55.4958 30.2951C55.4564 30.3859 55.4366 30.4886 55.4366 30.5952V31.5388C55.4366 31.6415 55.4564 31.7362 55.4958 31.8271C55.5353 31.9179 55.5867 31.9968 55.6577 32.0679C55.7248 32.139 55.8078 32.1903 55.9025 32.2337C55.9973 32.2732 56.096 32.293 56.2065 32.293H58.3426C58.4413 32.293 58.5321 32.2693 58.615 32.2258C58.6979 32.1824 58.7729 32.1271 58.8361 32.0561C58.8993 31.9889 58.9506 31.91 58.994 31.8231C59.0374 31.7362 59.0611 31.6533 59.073 31.5665C59.0848 31.4717 59.0848 31.4085 59.073 31.373C59.0572 31.3375 59.0335 31.3217 58.998 31.3217H57.4423V30.7373H59.073C59.1914 30.7373 59.2901 30.7492 59.3731 30.7768C59.456 30.8005 59.5231 30.836 59.5784 30.8834C59.6336 30.9308 59.6731 30.9861 59.6968 31.0492C59.7205 31.1164 59.7363 31.1914 59.7402 31.2743L59.8074 32.8852L59.227 32.8734L59.2388 31.6652H59.1598C59.1598 31.8429 59.1243 32.0087 59.0493 32.1548C58.9782 32.3048 58.8874 32.4311 58.7769 32.5377C58.6663 32.6444 58.5479 32.7273 58.4136 32.7865C58.2833 32.8457 58.157 32.8734 58.0346 32.8734H55.9894C55.8354 32.8734 55.6893 32.8457 55.5511 32.7865C55.4129 32.7273 55.2945 32.6483 55.1879 32.5456C55.0852 32.443 55.0023 32.3206 54.947 32.1824C54.8878 32.0442 54.8602 31.8981 54.8602 31.7441V30.3701C54.8602 30.2122 54.8878 30.0661 54.947 29.9279C55.0063 29.7897 55.0852 29.6713 55.1879 29.5686C55.2905 29.466 55.4129 29.387 55.5511 29.3278C55.6893 29.2686 55.8354 29.2409 55.9894 29.2409H58.6308C58.8479 29.2409 59.0611 29.2686 59.2704 29.3199C59.4757 29.3712 59.6573 29.4581 59.8074 29.5765V30.1767L59.7995 30.1727Z" fill="white"/>
<path d="M60.597 29.237H61.1814V32.8773H60.597V29.237Z" fill="white"/>
<path d="M66.1009 32.1824V29.237H66.6853V32.8773H65.9509L62.5712 29.924V32.8773H61.9868V29.237H62.7291L66.1009 32.1824Z" fill="white"/>
<path d="M67.1946 29.237H71.7667V29.8213H67.779V30.761H71.6444V31.3454H67.779V32.2851H71.7667V32.8694H67.1946V29.2291V29.237Z" fill="white"/>
<path d="M72.2208 29.237H76.7929V29.8213H72.8051V30.761H76.6705V31.3454H72.8051V32.2851H76.7929V32.8694H72.2208V29.2291V29.237Z" fill="white"/>
<path d="M81.9809 32.8773H81.2584L80.5358 31.8271H77.8352V32.8773H77.2509V29.237H80.9109C81.0688 29.237 81.2149 29.2646 81.3531 29.3239C81.4913 29.3831 81.6098 29.4581 81.7124 29.5529C81.8151 29.6476 81.898 29.7542 81.9533 29.8806C82.0125 30.003 82.0401 30.1293 82.0401 30.2557V30.7847C82.0401 30.8913 82.0164 31.0019 81.973 31.1124C81.9256 31.223 81.8664 31.3256 81.7914 31.4204C81.7164 31.5152 81.6295 31.5941 81.5268 31.6612C81.4281 31.7284 81.3255 31.7718 81.2228 31.7915L81.9809 32.8773ZM81.4558 30.6386V30.4017C81.4558 30.3228 81.44 30.2517 81.4044 30.1806C81.3689 30.1135 81.3215 30.0503 81.2623 29.999C81.1991 29.9477 81.1281 29.9043 81.0451 29.8727C80.9622 29.8411 80.8714 29.8253 80.7688 29.8253H77.8391V31.2388H80.7688C80.8951 31.2388 80.9978 31.219 81.0846 31.1835C81.1715 31.148 81.2426 31.0966 81.2978 31.0414C81.3531 30.9821 81.3926 30.919 81.4202 30.8479C81.4439 30.7768 81.4597 30.7097 81.4597 30.6426L81.4558 30.6386Z" fill="white"/>
<path d="M82.7903 29.237H83.3747V32.8773H82.7903V29.237Z" fill="white"/>
<path d="M88.2942 32.1824V29.237H88.8786V32.8773H88.1442L84.7645 29.924V32.8773H84.1801V29.237H84.9224L88.2942 32.1824Z" fill="white"/>
<path d="M94.2877 30.1727C94.2048 30.0977 94.1061 30.0385 93.9995 29.9951C93.8929 29.9477 93.7744 29.9161 93.652 29.8885C93.5257 29.8648 93.3954 29.845 93.2572 29.8371C93.119 29.8292 92.9769 29.8253 92.8308 29.8253H90.7027C90.5882 29.8253 90.4855 29.845 90.3907 29.8845C90.296 29.924 90.2131 29.9793 90.1459 30.0503C90.0749 30.1214 90.0235 30.2043 89.9841 30.2951C89.9446 30.3859 89.9248 30.4886 89.9248 30.5952V31.5388C89.9248 31.6415 89.9446 31.7362 89.9841 31.8271C90.0235 31.9179 90.0749 31.9968 90.1459 32.0679C90.2131 32.139 90.296 32.1903 90.3907 32.2337C90.4855 32.2732 90.5842 32.293 90.6948 32.293H92.8308C92.9295 32.293 93.0203 32.2693 93.1032 32.2258C93.1861 32.1824 93.2611 32.1271 93.3243 32.0561C93.3875 31.9889 93.4388 31.91 93.4822 31.8231C93.5257 31.7362 93.5494 31.6533 93.5612 31.5665C93.573 31.4717 93.573 31.4085 93.5612 31.373C93.5454 31.3375 93.5217 31.3217 93.4862 31.3217H91.9306V30.7373H93.5612C93.6796 30.7373 93.7784 30.7492 93.8613 30.7768C93.9442 30.8005 94.0113 30.836 94.0666 30.8834C94.1219 30.9308 94.1613 30.9861 94.185 31.0492C94.2087 31.1164 94.2245 31.1914 94.2285 31.2743L94.2956 32.8852L93.7152 32.8734L93.727 31.6652H93.6481C93.6481 31.8429 93.6125 32.0087 93.5375 32.1548C93.4664 32.3048 93.3756 32.4311 93.2651 32.5377C93.1545 32.6444 93.0361 32.7273 92.9018 32.7865C92.7715 32.8457 92.6452 32.8734 92.5228 32.8734H90.4776C90.3236 32.8734 90.1775 32.8457 90.0393 32.7865C89.9011 32.7273 89.7827 32.6483 89.6761 32.5456C89.5734 32.443 89.4905 32.3206 89.4353 32.1824C89.376 32.0442 89.3484 31.8981 89.3484 31.7441V30.3701C89.3484 30.2122 89.376 30.0661 89.4353 29.9279C89.4945 29.7897 89.5734 29.6713 89.6761 29.5686C89.7788 29.466 89.9011 29.387 90.0393 29.3278C90.1775 29.2686 90.3236 29.2409 90.4776 29.2409H93.119C93.3361 29.2409 93.5494 29.2686 93.7586 29.3199C93.9639 29.3712 94.1455 29.4581 94.2956 29.5765V30.1767L94.2877 30.1727Z" fill="white"/>
<path d="M100.423 32.1429H97.3516V32.8773H96.7672V29.237H100.427C100.585 29.237 100.731 29.2646 100.869 29.3239C101.008 29.3831 101.126 29.4621 101.229 29.5647C101.331 29.6674 101.414 29.7858 101.47 29.924C101.529 30.0622 101.556 30.2083 101.556 30.3662V31.0098C101.556 31.1638 101.529 31.3098 101.47 31.448C101.41 31.5862 101.331 31.7047 101.229 31.8113C101.126 31.9179 101.008 31.9968 100.869 32.0521C100.731 32.1113 100.585 32.139 100.427 32.139L100.423 32.1429ZM100.968 30.8321V30.5557C100.968 30.4531 100.952 30.3623 100.925 30.2714C100.897 30.1846 100.85 30.1056 100.791 30.0385C100.731 29.9714 100.648 29.9201 100.55 29.8806C100.451 29.8411 100.329 29.8213 100.182 29.8213H97.3476V31.5546H100.182C100.325 31.5546 100.443 31.5349 100.542 31.4994C100.64 31.4638 100.723 31.4125 100.783 31.3454C100.846 31.2783 100.889 31.2032 100.921 31.1164C100.948 31.0295 100.964 30.9348 100.964 30.8321H100.968Z" fill="white"/>
<path d="M106.812 29.237V29.8213H104.668V32.8734H104.083V29.8213H101.959V29.237H106.812Z" fill="white"/>
<path d="M109.935 31.0729L111.782 29.237H112.564L110.187 31.6612H110.172V32.8734H109.587V31.6612H109.571L107.159 29.237H107.949L109.824 31.0729H109.931H109.935Z" fill="white"/>
<path d="M115.048 32.8655V29.237H115.628V32.2851H119.651V32.8773L115.048 32.8655Z" fill="white"/>
<path d="M123.146 29.237V29.8213H121.002V32.8734H120.417V29.8213H118.293V29.237H123.146Z" fill="white"/>
<path d="M127.26 32.8773H123.6V29.237H127.26C127.418 29.237 127.564 29.2646 127.702 29.3239C127.84 29.3831 127.959 29.4621 128.061 29.5647C128.164 29.6674 128.243 29.7858 128.302 29.924C128.361 30.0622 128.389 30.2083 128.389 30.3662V31.7402C128.389 31.8942 128.361 32.0403 128.302 32.1785C128.243 32.3167 128.164 32.4391 128.061 32.5417C127.959 32.6444 127.84 32.7273 127.702 32.7826C127.564 32.8418 127.418 32.8694 127.26 32.8694V32.8773ZM127.805 31.5388V30.5992C127.805 30.4847 127.785 30.382 127.745 30.2872C127.706 30.1925 127.655 30.1135 127.584 30.0464C127.516 29.9793 127.434 29.9279 127.343 29.8885C127.252 29.849 127.153 29.8292 127.043 29.8292H124.18V32.2969H127.031C127.137 32.2969 127.24 32.2772 127.331 32.2416C127.422 32.2061 127.505 32.1508 127.572 32.0837C127.639 32.0166 127.694 31.9376 127.738 31.8468C127.781 31.756 127.797 31.6533 127.797 31.5428L127.805 31.5388Z" fill="white"/>
<path d="M51.1291 2.08864C47.1058 2.29395 32.5643 7.08716 23.2463 14.6876C15.5827 20.9338 11.5002 27.2905 11.2278 32.6167C11.1172 37.7574 15.7328 40 15.7328 40C15.7249 39.9921 13.1032 37.6113 13.4901 34.7014H16.6369C17.7582 34.7014 18.7374 33.9473 19.0256 32.8655L21.2959 24.3372H34.1081C35.5452 24.3372 36.8087 23.3699 37.1798 21.984L38.7631 16.1011H23.5109L23.7636 15.1614C25.0941 14.0796 26.5155 13.0491 28.0198 12.0738H40.8043C42.2691 12.0738 43.5444 11.0749 43.8958 9.65354C44.3815 7.68335 45.0014 5.13671 45.1277 4.54052C46.711 3.35209 51.1251 2.09259 51.1251 2.09259L51.1291 2.08864Z" fill="white"/>
<path d="M4.78815 37.939C1.86643 35.4832 1.21101 30.8045 8.83908 21.9169L10.6237 19.923C17.5727 12.4647 26.8314 7.29642 35.6202 3.98381L44.5394 1.17659C46.4504 0.690949 48.2824 0.300069 49.9999 0C49.9999 0 43.2878 0.0513277 33.5119 3.01648H16.4553L13.3085 14.7271C8.70879 18.9162 3.91953 23.8279 1.6927 27.859C-3.06497 36.4781 4.78815 37.9351 4.78815 37.9351V37.939Z" fill="white"/>
</svg>
